<?xml version="1.0" standalone="no"?>
<!DOCTYPE svg PUBLIC "-//W3C//DTD SVG 20010904//EN"
 "http://www.w3.org/TR/2001/REC-SVG-20010904/DTD/svg10.dtd">
<svg version="1.0" xmlns="http://www.w3.org/2000/svg"
 width="512.000000pt" height="512.000000pt" viewBox="0 0 512.000000 512.000000"
 preserveAspectRatio="xMidYMid meet">

<g transform="translate(0.000000,512.000000) scale(0.100000,-0.100000)"
fill="#249cf2" stroke="none">
<path d="M2412 4469 c-675 -52 -1285 -470 -1577 -1081 -254 -532 -252 -1140 4
-1663 231 -471 632 -822 1127 -984 618 -203 1302 -75 1808 338 104 85 271 263
348 372 196 275 321 625 348 979 13 174 13 1541 0 1635 -29 204 -201 376 -405
405 -83 11 -1500 11 -1653 -1z m194 -970 c21 -23 24 -11 -145 -496 l-80 -233
498 0 c489 0 499 0 525 -21 17 -13 26 -30 26 -48 0 -21 -97 -154 -413 -562
-402 -521 -413 -534 -449 -537 -30 -3 -40 1 -52 21 -15 23 -10 40 104 368 66
189 120 345 120 347 0 1 -220 2 -490 2 -337 0 -497 3 -513 11 -24 11 -47 47
-47 74 0 7 64 96 143 197 78 101 265 344 416 541 259 337 276 357 306 357 19
0 39 -8 51 -21z"/>
</g>
</svg>
